<svg xmlns="http://www.w3.org/2000/svg" xmlns:xlink="http://www.w3.org/1999/xlink" version="1.1" width="256" height="256" viewBox="0 0 256 256" xml:space="preserve">
<g style="stroke: none; stroke-width: 0; stroke-dasharray: none; stroke-linecap: butt; stroke-linejoin: miter; stroke-miterlimit: 10; fill: none; fill-rule: nonzero; opacity: 1;" transform="translate(1.4065934065934016 1.4065934065934016) scale(2.81 2.81)">
	<path d="M 45 82.687 c -17.024 0 -30.875 -13.85 -30.875 -30.874 c 0 -17.025 13.851 -30.875 30.875 -30.875 s 30.875 13.851 30.875 30.875 C 75.875 68.837 62.024 82.687 45 82.687 z M 45 23.937 c -15.37 0 -27.875 12.505 -27.875 27.875 c 0 15.37 12.505 27.874 27.875 27.874 s 27.875 -12.504 27.875 -27.874 C 72.875 36.442 60.37 23.937 45 23.937 z" style="stroke: none; stroke-width: 1; stroke-dasharray: none; stroke-linecap: butt; stroke-linejoin: miter; stroke-miterlimit: 10; fill: rgb(0,0,0); fill-rule: nonzero; opacity: 1;" transform=" matrix(1 0 0 1 0 0) " stroke-linecap="round"/>
	<path d="M 25.029 53.313 h -1.976 c -0.829 0 -1.5 -0.672 -1.5 -1.5 s 0.671 -1.5 1.5 -1.5 h 1.976 c 0.829 0 1.5 0.672 1.5 1.5 S 25.858 53.313 25.029 53.313 z" style="stroke: none; stroke-width: 1; stroke-dasharray: none; stroke-linecap: butt; stroke-linejoin: miter; stroke-miterlimit: 10; fill: rgb(0,0,0); fill-rule: nonzero; opacity: 1;" transform=" matrix(1 0 0 1 0 0) " stroke-linecap="round"/>
	<path d="M 67.572 53.313 h -1.976 c -0.828 0 -1.5 -0.672 -1.5 -1.5 s 0.672 -1.5 1.5 -1.5 h 1.976 c 0.828 0 1.5 0.672 1.5 1.5 S 68.4 53.313 67.572 53.313 z" style="stroke: none; stroke-width: 1; stroke-dasharray: none; stroke-linecap: butt; stroke-linejoin: miter; stroke-miterlimit: 10; fill: rgb(0,0,0); fill-rule: nonzero; opacity: 1;" transform=" matrix(1 0 0 1 0 0) " stroke-linecap="round"/>
	<path d="M 45.313 75.571 c -0.829 0 -1.5 -0.672 -1.5 -1.5 v -1.976 c 0 -0.828 0.671 -1.5 1.5 -1.5 c 0.828 0 1.5 0.672 1.5 1.5 v 1.976 C 46.813 74.899 46.141 75.571 45.313 75.571 z" style="stroke: none; stroke-width: 1; stroke-dasharray: none; stroke-linecap: butt; stroke-linejoin: miter; stroke-miterlimit: 10; fill: rgb(0,0,0); fill-rule: nonzero; opacity: 1;" transform=" matrix(1 0 0 1 0 0) " stroke-linecap="round"/>
	<path d="M 45.313 33.028 c -0.829 0 -1.5 -0.671 -1.5 -1.5 v -1.976 c 0 -0.829 0.671 -1.5 1.5 -1.5 c 0.828 0 1.5 0.671 1.5 1.5 v 1.976 C 46.813 32.357 46.141 33.028 45.313 33.028 z" style="stroke: none; stroke-width: 1; stroke-dasharray: none; stroke-linecap: butt; stroke-linejoin: miter; stroke-miterlimit: 10; fill: rgb(0,0,0); fill-rule: nonzero; opacity: 1;" transform=" matrix(1 0 0 1 0 0) " stroke-linecap="round"/>
	<path d="M 59.727 45.476 c -0.327 -0.761 -1.208 -1.113 -1.971 -0.785 l -8.443 3.633 c -1.019 -1.257 -2.573 -2.063 -4.313 -2.063 c -0.683 0 -1.335 0.13 -1.94 0.357 L 32.649 32.381 c -0.49 -0.67 -1.429 -0.814 -2.096 -0.326 c -0.669 0.489 -0.814 1.428 -0.326 2.096 l 10.411 14.238 c -0.743 0.944 -1.19 2.132 -1.19 3.423 c 0 3.061 2.491 5.551 5.552 5.551 c 3.062 0 5.552 -2.49 5.552 -5.551 c 0 -0.249 -0.022 -0.492 -0.054 -0.733 l 8.444 -3.633 C 59.702 47.119 60.054 46.236 59.727 45.476 z M 45 54.363 c -1.407 0 -2.552 -1.145 -2.552 -2.551 c 0 -1.407 1.145 -2.552 2.552 -2.552 s 2.552 1.145 2.552 2.552 C 47.552 53.219 46.407 54.363 45 54.363 z" style="stroke: none; stroke-width: 1; stroke-dasharray: none; stroke-linecap: butt; stroke-linejoin: miter; stroke-miterlimit: 10; fill: rgb(0,0,0); fill-rule: nonzero; opacity: 1;" transform=" matrix(1 0 0 1 0 0) " stroke-linecap="round"/>
	<path d="M 51.026 14.104 V 9.747 c 2.138 -0.551 3.729 -2.479 3.729 -4.787 c 0 -2.735 -2.225 -4.96 -4.959 -4.96 h -9.591 c -2.735 0 -4.96 2.225 -4.96 4.96 c 0 2.308 1.591 4.235 3.729 4.787 v 4.357 C 20.77 17.003 6.812 32.806 6.812 51.813 C 6.812 72.869 23.943 90 45 90 c 21.057 0 38.188 -17.131 38.188 -38.188 C 83.188 32.806 69.229 17.003 51.026 14.104 z M 38.245 4.96 c 0 -1.081 0.879 -1.96 1.96 -1.96 h 9.591 c 1.08 0 1.959 0.879 1.959 1.96 s -0.879 1.96 -1.959 1.96 h -9.591 C 39.124 6.92 38.245 6.041 38.245 4.96 z M 41.974 9.92 h 6.053 v 3.835 c -1 -0.079 -2.007 -0.131 -3.026 -0.131 s -2.027 0.052 -3.026 0.131 V 9.92 z M 45 87 C 25.597 87 9.812 71.215 9.812 51.813 C 9.812 32.41 25.597 16.624 45 16.624 c 19.402 0 35.188 15.786 35.188 35.188 C 80.188 71.215 64.402 87 45 87 z" style="stroke: none; stroke-width: 1; stroke-dasharray: none; stroke-linecap: butt; stroke-linejoin: miter; stroke-miterlimit: 10; fill: rgb(0,0,0); fill-rule: nonzero; opacity: 1;" transform=" matrix(1 0 0 1 0 0) " stroke-linecap="round"/>
</g>
</svg>